<svg width="34" height="33" viewBox="0 0 34 33" fill="none" xmlns="http://www.w3.org/2000/svg">
<path fill-rule="evenodd" clip-rule="evenodd" d="M16.3049 28.7376C16.0429 28.3575 16.162 27.8202 16.5708 27.5375C19.9525 25.1989 23.4247 23.0168 26.8838 20.8429C27.3241 20.5663 27.7642 20.2897 28.2038 20.013C28.6244 19.7482 29.1621 19.852 29.4048 20.2448C29.6475 20.6376 29.5032 21.1707 29.0826 21.4354C28.6418 21.7129 28.2014 21.9896 27.7614 22.2661C24.2981 24.4428 20.8637 26.6011 17.5195 28.9138C17.1107 29.1965 16.5668 29.1176 16.3049 28.7376Z" fill="black"/>
<path fill-rule="evenodd" clip-rule="evenodd" d="M26.0639 8.59413C26.4417 8.92578 26.4902 9.49651 26.1723 9.86889C25.5724 10.5716 24.9723 11.273 24.3727 11.9738C20.8682 16.0696 17.38 20.1463 14.0532 24.3602C13.7496 24.7447 13.1879 24.799 12.7986 24.4814C12.4092 24.1639 12.3397 23.5948 12.6432 23.2103C15.993 18.9674 19.5061 14.8616 23.0098 10.7669C23.6085 10.0671 24.207 9.36763 24.8044 8.66786C25.1222 8.29548 25.6862 8.26247 26.0639 8.59413Z" fill="black"/>
<path fill-rule="evenodd" clip-rule="evenodd" d="M11.3195 6.54197C11.7798 6.67382 12.0486 7.15404 11.9198 7.61458L7.71974 22.6346C7.59096 23.0951 7.11339 23.3616 6.65306 23.2297C6.19273 23.0979 5.92395 22.6176 6.05273 22.1571L10.2528 7.13711C10.3816 6.67657 10.8591 6.41012 11.3195 6.54197Z" fill="black"/>
</svg>
