<svg width="17" height="100" viewBox="0 0 17 100" fill="none" xmlns="http://www.w3.org/2000/svg">
<path fill-rule="evenodd" clip-rule="evenodd" d="M8.99158 -2.83812e-08C9.35017 -1.27067e-08 9.64087 0.290695 9.64087 0.649285L9.64087 87.7785C9.64087 88.1371 9.35017 88.4278 8.99158 88.4278C8.63299 88.4278 8.34229 88.1371 8.34229 87.7785L8.3423 0.649285C8.3423 0.290695 8.63299 -4.40557e-08 8.99158 -2.83812e-08Z" fill="black"/>
<path fill-rule="evenodd" clip-rule="evenodd" d="M16.2783 76.1679C16.6262 76.2548 16.8377 76.6073 16.7507 76.9552C16.5453 77.777 16.3382 78.5969 16.1313 79.4158C15.0067 83.8683 13.8902 88.2881 13.0959 92.7893C13.0591 92.9976 13.0215 93.2809 12.9755 93.6271C12.9324 93.951 12.8821 94.33 12.8183 94.7542C12.6926 95.5893 12.5212 96.5438 12.2706 97.3302C12.1457 97.722 11.9917 98.1031 11.7954 98.4151C11.6064 98.7154 11.3226 99.0403 10.903 99.1667C10.4432 99.3052 10.0066 99.1545 9.64832 98.8829C9.3032 98.6213 8.97375 98.2104 8.64576 97.6753C7.33903 95.5433 6.37012 93.1679 5.49148 90.7968C5.24529 90.1324 5.00684 89.4704 4.77023 88.8136C4.1552 87.1061 3.55261 85.4332 2.85894 83.8431C2.8255 83.7665 2.75253 83.5938 2.65061 83.3527C2.37057 82.6901 1.87198 81.5104 1.37412 80.3836C1.0378 79.6224 0.714105 78.914 0.477049 78.4464C0.422211 78.3382 0.375753 78.2505 0.337738 78.1818C0.136465 78.0716 -7.47213e-08 77.8577 -6.39817e-08 77.612C-6.21045e-08 77.5691 0.000394765 77.432 0.0682468 77.2865C0.106893 77.2036 0.187015 77.0764 0.341892 76.9872C0.507877 76.8917 0.680086 76.8854 0.81103 76.9128C1.01401 76.9551 1.13975 77.0804 1.16903 77.1095L1.1708 77.1113C1.2202 77.1604 1.25956 77.2114 1.28708 77.2495C1.3916 77.3943 1.51385 77.6197 1.63527 77.8592C1.88925 78.3601 2.22492 79.0961 2.56191 79.8588C3.06615 81 3.60142 82.2664 3.87529 82.9142C3.96399 83.1241 4.02527 83.2691 4.04919 83.3239C4.76116 84.956 5.38585 86.6902 6.00612 88.4122C6.23961 89.0604 6.47247 89.7069 6.70913 90.3456C7.58193 92.7009 8.51541 94.9776 9.75293 96.9967C10.0458 97.4745 10.2748 97.7283 10.4328 97.848C10.4846 97.8873 10.5193 97.9058 10.5398 97.9142C10.5647 97.8953 10.6197 97.8452 10.6963 97.7235C10.8098 97.5432 10.9242 97.2784 11.0333 96.9358C11.2508 96.2534 11.4102 95.3846 11.5341 94.561C11.5885 94.1997 11.6378 93.8322 11.6821 93.5014C11.7336 93.117 11.7786 92.7821 11.8171 92.5636C12.6204 88.0118 13.7502 83.5394 14.8748 79.0878C15.081 78.2714 15.2871 77.4556 15.4909 76.6403C15.5779 76.2924 15.9304 76.0809 16.2783 76.1679ZM10.5629 97.9204C10.563 97.9208 10.56 97.9209 10.5535 97.919C10.5595 97.919 10.5628 97.9199 10.5629 97.9204ZM0.231144 78.0055C0.231138 78.0055 0.231543 78.006 0.232368 78.0071C0.23156 78.0061 0.231148 78.0056 0.231144 78.0055Z" fill="black"/>
</svg>
