<svg width="86" height="99" viewBox="0 0 86 99" fill="none" xmlns="http://www.w3.org/2000/svg">
<path d="M13.3744 43.5204C10.4901 44.874 2.85605 50.9672 1.38571 52.7726C-0.141269 54.5779 -0.593532 51.7572 0.989803 47.0746C2.23359 43.2947 5.40082 38.1606 10.7164 33.7603C13.8264 31.2215 20.6692 27.5546 24.8537 25.4105C25.7021 24.9591 36.6727 20.333 46.4559 18.02C47.3044 17.7942 45.4381 19.4303 45.1552 20.333C43.6849 24.6206 14.3353 43.0124 14.3353 43.0124L13.3744 43.5204ZM54.7122 95.2542C55.2211 98.3007 54.7688 98.5265 51.6021 98.9214C48.4352 99.3164 46.1167 98.1315 45.2685 97.3418C44.4201 96.5516 44.2507 94.8031 45.0989 93.2235C45.608 92.2078 46.1169 91.8693 46.3999 90.6282C46.6825 89.4435 46.9088 89.1613 47.1347 88.7101C47.3607 88.3149 47.4177 87.9199 47.474 85.1557C47.5307 82.3914 47.474 77.2009 47.7569 75.0008C48.0398 72.7443 57.823 76.0162 57.823 76.0162C57.823 76.0162 55.5042 81.7707 54.8823 83.1811C54.2602 84.5917 54.3168 87.2995 54.3168 87.8637C54.3168 88.4279 54.0908 89.556 53.9209 89.6125C53.7513 89.6687 54.4864 91.1356 54.1469 91.982C53.9206 92.772 54.6558 94.8031 54.7122 95.2542V95.2542ZM58.4446 8.99326C58.1051 6.84946 58.4446 2.6178 58.8969 1.94114C60.3109 0.0227956 67.7753 -0.202664 69.3589 2.05387C70.0374 3.06927 69.9808 5.43881 69.8678 6.96219C69.7548 8.48528 69.3589 11.7575 69.3023 12.8297C69.2459 13.6196 61.0461 14.8605 59.2365 12.7167C58.7273 12.1527 58.4446 8.99326 58.4446 8.99326V8.99326ZM75.0704 89.7817C78.5199 92.2643 81.1777 92.7155 82.9307 93.6181C84.6836 94.5211 84.2314 96.2699 81.2907 96.7776C78.9156 97.2288 75.1833 96.3261 72.6952 96.3261C70.2071 96.3261 64.665 96.6084 63.1946 95.593C61.4983 94.4084 62.2332 92.2078 62.2332 92.2078C62.6857 90.9669 63.8165 88.2021 63.4773 85.9456C63.138 83.6891 62.6855 82.4479 61.8373 80.3604C60.9891 78.2731 60.3672 73.1393 61.159 72.857C61.9509 72.5748 61.7243 72.857 62.7424 73.0825C63.7602 73.308 64.8913 73.6467 67.0968 73.6467C69.3023 73.6467 71.7338 73.3079 72.5822 73.139C73.4304 72.9698 74.1089 72.8003 73.826 74.5494C73.5434 76.2982 72.6952 79.5704 72.6386 82.1092C72.5822 84.648 72.5822 87.5817 72.7519 88.0894C72.9212 88.5971 74.1655 89.1613 75.0704 89.7817V89.7817Z" fill="#010101"/>
<path d="M62.9694 14.6359C56.749 19.9957 44.7037 21.4623 26.8342 28.3452C22.2535 30.094 10.0388 35.3408 7.09814 40.8133C16.9943 35.1153 20.6702 42.9571 21.4617 51.0246C22.1966 58.5845 25.9857 62.5339 35.7123 62.3079C45.7218 62.0824 48.7754 67.8931 51.5462 74.7198C56.9184 48.5986 65.5141 43.5213 71.0557 39.0645C82.8184 29.5298 68.3415 12.7176 62.9694 14.6359Z" fill="#2E2E2E"/>
<path d="M62.9701 14.6355C48.041 19.8258 33.2813 21.1234 15.9207 31.7862C11.7926 34.325 3.08382 40.0792 1.38721 51.0807C7.72055 44.0848 22.367 35.2842 40.2934 29.6989C49.3415 26.8779 55.958 25.0163 63.9879 21.9134C63.4227 18.3024 63.4227 16.892 62.9701 14.6355V14.6355Z" fill="#2E2E2E"/>
<path d="M82.0265 45.5507C82.0265 45.5507 80.9521 49.2179 78.8032 50.4028C78.8032 50.4028 77.2199 50.967 74.0532 49.2181C73.1484 48.7104 72.4699 46.9616 72.5262 46.3971C72.5829 45.043 73.431 44.4226 73.431 44.4226C73.431 44.4226 74.3361 42.8992 75.4103 42.9557C76.485 43.0119 78.2946 43.1811 78.8601 42.6734C79.3687 42.1092 82.1398 43.6888 82.0265 45.5507V45.5507ZM58.9542 10.0646C58.9542 10.0646 58.7282 12.9421 58.3323 14.7472C58.2756 15.0859 56.5793 15.2549 55.335 15.7629C57.7101 22.5328 72.0173 22.4763 73.8836 19.1478C72.9788 18.5274 71.1691 17.5682 70.321 17.2297C69.4725 16.891 69.5292 16.9475 69.4725 15.3679C69.4162 13.788 69.3029 10.8546 69.1896 10.0646C69.0766 9.27468 60.3112 9.27468 58.9542 10.0646Z" fill="#010101"/>
<path d="M59.5194 10.0658C59.5194 10.0658 59.5194 11.7019 59.3497 13.2815C59.2934 14.0149 59.2367 14.4661 59.1237 15.0303C59.0671 15.369 61.0464 16.7226 61.6119 19.7129C64.3263 25.7493 70.6036 22.7594 73.2047 19.8821C72.2999 19.2614 70.8296 18.4152 69.1332 17.7383C68.2848 17.3996 68.6807 16.6664 68.6243 15.0868C68.5677 13.5072 68.3414 11.1939 68.2284 10.3477C68.1149 9.50156 60.8767 9.27582 59.5194 10.0658V10.0658Z" fill="#F0EFEF"/>
<path d="M58.955 10.0668C58.955 10.0668 58.8984 11.0825 58.729 12.2671C59.4639 13.0003 60.4253 14.016 61.1608 14.6367C61.6697 15.0881 62.9135 15.0316 64.0448 15.0316C65.0626 15.0316 65.9674 15.1444 66.3633 14.9189C67.2684 14.4674 68.5688 13.3393 69.304 12.4929C69.2476 11.4775 69.191 10.5183 69.1347 10.0668C69.0775 9.27688 60.3121 9.27688 58.955 10.0668V10.0668Z" fill="#010101"/>
<path d="M64.0992 14.3539C63.4204 14.3539 62.6286 14.2976 62.0067 14.1846C61.7238 14.1284 61.4412 13.9592 61.2149 13.8462C60.819 13.5639 60.4231 13.2257 59.9711 12.887C59.066 12.2101 59.0097 11.8151 59.0097 11.6461C59.4056 8.09169 58.8964 5.10172 58.8964 5.10172C58.8964 5.10172 58.5005 3.57834 60.6493 3.18337C62.7982 2.7884 64.0989 2.73218 64.0989 2.73218C64.0989 2.73218 65.4563 2.73218 67.5485 3.18337C69.6974 3.57834 69.3015 5.10172 69.3015 5.10172C69.3015 5.10172 68.7926 8.09169 69.1885 11.6461C69.1885 11.8151 69.1321 12.2101 68.227 12.887C67.4352 13.4512 66.8133 14.0716 66.1914 14.1846C65.5693 14.2976 64.7775 14.3539 64.0992 14.3539V14.3539Z" fill="#010101"/>
<path d="M64.0999 1.26367C60.3677 1.26367 59.6322 2.27907 58.5578 3.40748C58.3318 3.68944 58.5011 5.38205 58.8973 8.99272H59.4062C59.4062 8.99272 59.0667 7.97705 59.1233 6.79242C59.1799 5.60778 59.4062 5.66429 59.2363 5.38205C59.0103 5.0433 58.5578 4.4791 59.5759 3.91518C60.5937 3.35097 62.177 4.36637 64.0999 4.42288C66.0225 4.36637 67.6624 3.35097 68.6802 3.91518C69.698 4.4791 69.2458 5.0433 69.0198 5.38205C68.7935 5.72051 69.0761 5.60751 69.1328 6.79242C69.1891 7.97705 68.8499 8.99272 68.8499 8.99272H69.3588C69.698 5.38205 69.9243 3.80245 69.7547 3.52021C68.7932 2.27907 67.8321 1.3199 64.0999 1.26367V1.26367ZM82.026 45.7199C82.026 45.7199 80.9516 49.1614 78.8593 50.346C78.4068 50.1205 78.4634 49.7821 78.0675 49.2741C77.9543 49.1051 77.5584 48.9919 77.389 48.8229C77.2194 48.6537 77.276 48.3714 76.9931 48.146C76.7668 47.9202 76.5972 48.0895 76.3709 47.9202C76.1449 47.6948 76.088 47.4125 75.9187 47.2436C75.8054 47.1306 75.3531 47.0743 75.2401 46.9613C74.9572 46.6791 72.4694 46.1714 72.5824 45.6072C72.8084 44.7607 73.2609 44.1403 73.2609 44.1403C73.2609 44.1403 74.3353 42.5607 75.4095 42.6169C76.4839 42.6734 77.502 42.8992 78.0675 42.3915C78.6897 41.827 82.1959 43.9146 82.026 45.7199Z" fill="#010101"/>
<path d="M74.6771 20.784C74.6771 20.784 78.2397 19.9375 80.6715 22.2508C83.1033 24.6204 82.9334 27.5538 82.1985 29.3592C82.8204 30.0926 83.9514 32.1234 83.1033 34.5495C86.8355 37.7087 85.1955 42.5607 81.8592 45.7764C81.8592 45.7764 81.0674 42.8427 77.9007 42.6735C78.0137 41.5453 74.9601 40.6424 76.3738 37.7087C74.2249 37.201 74.2815 35.7341 73.9423 33.929C73.6593 32.1234 74.6771 20.784 74.6771 20.784V20.784Z" fill="#010101"/>
<path d="M73.3765 22.3636C73.3765 22.3636 77.5046 20.2763 79.9364 22.6458C82.3679 25.0153 81.6891 27.6103 80.9542 29.4157C81.5761 30.1488 83.0464 32.2367 82.1416 34.7187C81.972 35.2829 80.7279 35.2829 79.8228 36.7498C82.0847 35.4518 83.4987 35.7906 84.0076 37.4264C84.7994 39.9652 83.0461 43.0117 81.5194 44.7043C81.5194 44.6478 81.4628 44.5913 81.4628 44.535C81.2368 45.3815 80.9539 47.0173 79.2576 48.8226C78.4091 49.7253 77.7306 49.6126 76.7692 49.3869C75.6384 49.1046 75.2425 48.5966 73.6591 47.7507C72.7543 47.243 73.2632 46.6223 73.2632 46.1146C73.2632 46.0019 73.3762 45.8324 73.5461 45.6069C73.6591 45.3247 73.9984 44.8738 74.5073 44.3658C74.5073 44.3658 75.2425 43.3504 76.3172 43.4066C77.3916 43.4631 78.5224 43.2377 78.8053 42.9554C78.8053 40.9809 76.5434 40.9244 77.335 37.5394C77.3916 37.3702 77.6745 37.0879 78.579 36.9752C77.2217 36.693 76.5998 36.6365 75.6384 35.7341C74.9598 35.1137 74.4509 34.3237 74.281 33.3083C73.942 31.5595 73.3765 22.3636 73.3765 22.3636V22.3636Z" fill="#F0EFEF"/>
<path d="M61.4444 18.8092C61.1052 18.3577 59.3522 16.1012 56.0156 15.1985C55.0542 14.9163 54.4323 15.7062 53.4711 16.2704C53.1882 16.1012 51.9441 15.537 51.2656 15.9317C50.5871 16.3264 50.1348 16.7216 49.456 17.0036C49.1165 16.8343 48.2119 16.8343 47.4768 17.1163C46.7416 17.342 45.6105 17.8497 44.5361 19.3166C43.8576 21.7427 56.5245 19.937 56.5245 19.937L61.4444 18.8092Z" fill="#010101"/>
<path d="M61.5564 18.8089C59.7465 18.1882 60.0294 16.1009 56.0143 15.7624C55.2225 15.7059 54.7136 16.3263 54.1481 16.7213C54.431 17.0035 54.7136 17.4547 54.8832 17.9059C54.3743 17.342 53.4695 16.6083 52.5645 16.4391C51.7163 16.2701 51.1508 16.8905 50.246 17.342C50.4153 17.511 50.5852 17.7932 50.8112 18.1319C50.0194 17.6242 49.4542 17.455 48.3797 17.8497C47.6445 18.0752 46.2308 18.6959 45.1564 20.2192C44.4779 22.6453 56.5796 19.937 56.5796 19.937L61.5564 18.8089Z" fill="#2E2E2E"/>
<path d="M72.1878 19.7136C72.1878 19.7136 72.1878 19.0929 72.1312 18.529C72.1312 18.4163 71.6789 18.134 71.6789 18.0213L71.5659 17.9083C71.5659 17.9083 72.4707 17.4006 73.1493 17.6828C73.8841 17.9083 74.28 18.8675 74.28 18.8675C75.5808 18.4163 75.6938 18.924 76.3159 19.6009C77.6733 19.3186 77.8426 19.8263 78.6911 21.0678C78.6911 21.0678 77.6733 20.8985 75.694 21.2367C73.7711 21.5187 72.1878 19.6571 72.1878 19.7136V19.7136Z" fill="#010101"/>
<path d="M71.9607 19.4311C71.9607 19.4311 72.3 19.1489 72.1867 19.0924C72.8086 18.7539 73.6571 18.3592 74.053 19.4311C75.3537 18.9797 75.5233 19.6004 76.1452 20.2776C77.7285 19.5441 77.8415 20.4465 77.9548 20.8415C77.4459 20.8415 76.711 20.898 75.6929 21.0107C73.7703 21.293 71.9041 19.3746 71.9607 19.4311Z" fill="#2E2E2E"/>
<path d="M52.7355 18.0205C52.7355 18.0205 55.9588 19.1486 58.6732 18.9794C61.3876 18.7539 66.0246 18.5282 68.5127 19.9951C68.5127 19.9951 71.0575 19.0921 73.4326 19.7128C75.8081 20.3333 80.1622 24.3954 78.8617 28.683C78.7485 28.9653 78.0133 29.4165 77.1651 29.6987C77.1651 29.6987 77.6177 31.6168 76.8259 33.1964C76.0341 34.7197 74.2811 37.6535 74.2244 41.7154C74.1681 42.3923 74.0551 43.8027 73.9418 44.4796C69.5308 44.3106 62.7449 42.6743 56.072 42.7873C56.1284 42.0541 56.185 41.6026 56.2417 40.8692H56.411C56.0718 39.0074 55.9588 38.0482 55.6192 36.6378C53.4703 35.284 51.2082 33.7044 49.2859 30.7141C47.4196 27.7239 52.7355 18.0205 52.7355 18.0205V18.0205ZM74.5637 48.4855C74.5637 48.4855 78.0699 61.0102 73.9418 66.257C73.9418 66.257 74.5637 68.6827 73.15 71.278C72.9237 72.4061 72.6408 73.4218 72.4715 74.5499C71.7363 79.2325 70.492 81.2071 70.1527 88.7104L66.7595 88.6542C66.7595 88.6542 66.3636 83.2382 65.1761 80.3609C64.4979 78.7251 61.8396 76.5245 61.9531 74.3245C62.0661 72.6319 62.4054 71.2215 65.2897 68.9647C65.5157 65.6927 62.2357 62.5895 62.7449 50.4036L74.5637 48.4855Z" fill="#010101"/>
<path d="M73.5424 47.9775C74.4472 53.732 76.5395 62.251 72.7506 66.4256C72.9742 67.4842 72.9933 68.5756 72.807 69.6413C72.694 70.3183 72.4677 71.0517 72.1851 71.8414C71.6196 73.1955 71.3933 75.1701 71.2237 76.3547C70.4885 81.0373 70.4885 81.2633 70.1492 88.7666L66.756 88.7101C66.756 88.7101 66.3601 83.2941 65.1727 80.4171C64.4944 78.781 63.0804 77.3707 62.9674 75.1703C62.8544 73.478 64.0419 70.0931 66.8696 70.2058C66.6999 63.3794 63.533 64.7333 62.6848 50.5163L73.5424 47.9775ZM52.732 18.0205C52.732 18.0205 53.976 18.4155 55.3331 18.5282C56.6905 18.6409 58.1608 18.5282 59.4612 18.4717C62.1756 18.2462 66.0211 17.964 68.5659 19.4309C68.5659 19.4309 69.9796 18.9794 71.5066 19.0921C72.1851 19.1486 72.8639 19.7128 73.6554 19.9386C76.1436 20.559 78.5187 24.6774 77.444 28.4011C77.331 28.6833 76.5392 28.4011 75.6344 28.6833C75.8038 29.4732 75.9173 31.2786 75.0122 33.1966C74.0511 35.115 72.807 37.5973 73.033 42.3363C67.0953 42.0541 64.4375 41.6594 58.5561 41.3772C58.0472 39.2896 57.7077 37.2023 57.6513 36.1304C58.4431 35.7354 58.8951 35.3972 59.5176 34.72C57.8213 35.0023 57.1424 34.8893 56.1244 34.3251C55.1066 33.7609 53.297 31.9555 52.3922 30.7709C52.2792 30.6579 51.6573 32.5194 50.2436 32.5762C49.7344 31.8428 51.8833 29.7552 51.4874 28.9655C50.0739 26.088 52.732 18.0205 52.732 18.0205V18.0205Z" fill="#F0EFEF"/>
<path d="M73.997 43.2946C73.997 43.2946 74.11 45.3257 74.11 45.8334C74.11 46.3976 74.5625 48.0899 74.6189 48.8799C73.997 49.9518 71.2825 52.3778 66.3626 53.2805C61.4993 54.2959 55.0527 46.6798 55.0527 46.6798C55.2224 45.9464 55.7879 43.8023 56.1838 42.6742C56.2404 42.5615 56.3534 42.2792 56.3534 42.1665C56.8626 41.4331 73.997 43.2946 73.997 43.2946V43.2946Z" fill="#010101"/>
<path d="M72.7539 43.4641C72.7539 44.8745 72.9799 45.8902 73.1498 46.7929C73.4324 48.429 73.8847 49.5009 73.8847 50.5728C73.8847 53.8447 69.587 53.2805 65.9675 53.3935C61.1042 54.4092 56.9761 46.7929 56.9761 46.7929C57.3153 45.4952 57.5416 44.0286 58.0505 42.7872C58.1069 42.1103 58.2201 41.2641 58.2765 40.8691C65.1757 40.8691 70.0389 41.2641 72.8666 41.5458C72.9799 42.1665 72.8669 43.2384 72.7539 43.4641Z" fill="#F0EFEF"/>
<path d="M67.3238 50.7406C67.3238 50.7406 64.3268 44.0834 55.3351 46.0583C53.1865 52.0947 50.3022 59.0341 52.1684 66.5374C50.3022 69.0762 48.1533 70.4869 48.1533 75.1692C48.1533 79.8517 48.3796 80.6417 48.3796 80.6417L54.9958 80.9804C54.9958 80.9804 57.1447 78.2162 57.9929 75.2259C58.2191 74.3795 58.4454 72.8564 58.2758 71.1076C58.5018 70.7691 59.4632 69.9794 59.5765 68.4561C59.5765 68.4561 62.7998 66.7637 64.666 62.6454C66.4193 58.9211 65.9667 55.7054 67.3238 50.7406Z" fill="#010101"/>
<path d="M67.3225 50.742C67.1531 50.1216 64.891 44.0287 56.5215 45.8337C51.6019 58.9226 53.4115 64.3386 54.1463 66.7078C50.8098 70.9389 49.2831 71.8416 49.9619 80.4171H54.3729C56.4085 77.2014 56.861 76.0165 56.974 71.7854C56.974 71.6162 56.3521 72.1238 55.8996 72.688C56.2391 70.9392 57.2003 70.6008 57.9355 69.5288C58.2747 69.0774 58.5574 68.4004 58.5574 67.4978C62.5158 64.8463 63.9862 61.5176 64.8343 58.0761C65.5132 55.7068 66.3047 51.8139 67.3225 50.742V50.742Z" fill="#F0EFEF"/>
<path d="M53.3564 41.6599C53.3564 41.6599 54.8834 41.7161 56.2408 42.1676C57.5415 42.6188 57.5415 42.9008 58.0504 43.4653C58.5593 44.0297 59.8033 44.8756 59.5773 45.7218C59.4641 46.1733 59.1814 46.286 58.7855 46.681C58.6159 46.8502 57.3716 48.2041 57.0889 48.3733C56.9193 48.486 56.693 48.6555 56.5234 48.7683L55.6752 49.3325C55.1097 49.6147 54.7138 49.7839 54.0919 49.7274C54.0919 49.7274 52.6782 49.6709 51.7731 48.712C51.7731 48.712 51.6601 48.2606 51.8864 48.0351C51.8864 48.0351 50.6987 47.0194 50.3594 46.3425C50.0199 45.6658 50.0199 44.7067 50.2464 44.199C50.3594 43.6907 52.5646 42.2803 53.3564 41.6599V41.6599ZM54.7704 96.5532L54.6008 97.9639C54.6008 97.9639 54.0919 98.5843 50.303 98.5281C46.4576 98.4716 45.4398 97.2869 45.1005 96.6662L44.8745 95.1994C44.8745 95.1994 45.6097 94.1275 45.7793 94.1275C47.0234 94.2402 51.2648 95.9328 54.2054 96.384C54.4875 96.384 54.5439 96.4967 54.7704 96.5532ZM62.97 93.676C62.97 94.2964 62.9134 94.2964 62.9134 94.9171C63.5919 95.4248 65.2888 95.7071 68.5118 95.6503C73.2055 95.5375 77.5598 97.0609 82.8754 96.158L82.932 95.1426L82.4231 95.0863L63.5919 93.563L62.97 93.676Z" fill="#010101"/>
<path d="M67.0957 95.6503H68.5094C71.5633 95.5376 74.4474 96.2146 77.5574 96.3838C79.1974 96.3273 81.2333 95.9323 81.0636 94.7477L65.0035 93.3935C64.042 94.4654 64.7769 95.3681 67.0957 95.6503V95.6503ZM48.6604 71.899C49.1693 72.2375 52.6188 74.2685 58.2173 73.9863C58.104 75.0582 58.1607 77.1458 55.6725 80.8127C54.4284 82.618 53.3537 85.7775 53.1277 89.7831C53.1844 90.6858 53.6933 91.4755 53.0147 92.6604C53.2407 93.3935 54.1455 94.8604 54.5981 95.7631C55.0503 96.666 55.2766 97.6814 52.2793 97.7379C49.2256 97.7942 44.3057 97.4557 44.9845 95.0864C45.3241 93.8453 46.2852 92.5477 46.3985 92.0397C46.5115 91.532 46.5115 90.0089 47.4727 88.9932C48.3211 86.1725 48.0382 83.4645 47.8688 80.9257C47.5859 78.2739 47.5293 74.0428 48.6604 71.899V71.899ZM53.9196 25.9194C57.9347 20.5596 54.5414 16.2722 48.0951 17.5696C45.4937 18.0773 42.8926 19.8829 42.7227 23.1548C41.8745 23.2676 39.9519 23.3803 38.9904 26.8783C38.2555 29.5863 37.8597 30.094 36.5587 31.4478C35.7105 32.407 36.6153 34.3816 37.2372 35.7922C39.3297 40.644 45.7763 41.0952 50.1307 44.7624C51.601 44.3674 53.1277 42.7316 53.5803 41.6597C49.9044 37.3153 50.696 35.623 49.2256 33.3664C50.8092 32.802 54.4285 30.6019 53.9196 25.9194Z" fill="#010101"/>
<path d="M53.13 25.5791C53.356 25.2404 53.7519 24.5072 53.9219 24.225C53.9785 24.1685 54.6004 25.2404 54.657 25.1841C56.1837 22.7016 56.5796 19.0909 54.8264 18.7524C54.4305 18.6959 53.6956 18.527 53.0734 18.301C51.9426 17.906 50.9248 17.906 49.1149 18.2447C46.6268 18.6959 44.1387 20.5013 44.1387 23.0966C44.1387 23.2658 45.8913 23.7735 46.4005 25.8611C45.5521 24.6762 44.0817 23.3785 42.3288 24.5069C40.4625 25.6916 41.424 28.3996 38.9358 31.2203C38.0874 32.1795 38.2007 33.3079 39.1052 35.5644C40.5755 39.1189 47.5313 41.0369 51.3202 44.4219C52.225 44.0269 52.8469 43.1242 53.2994 42.4473C50.7546 39.7958 49.7366 37.3133 49.0017 35.5079C48.0969 33.4206 47.0788 32.236 45.0995 30.6558C46.1176 31.0508 46.9094 31.4458 47.3614 31.7842C47.8703 32.1227 48.6055 32.1792 49.2843 31.9535C51.7163 31.1079 53.017 27.7226 53.13 25.5791Z" fill="#F0EFEF"/>
<path d="M77.7277 26.4829C77.5581 28.6267 75.9748 27.5548 75.1266 27.1598C73.43 26.4264 71.7334 25.9187 69.7542 25.9187C67.7749 25.9187 65.2301 26.0879 63.0249 26.6521C59.9712 27.4983 59.0662 27.4421 57.7091 26.7648C56.352 26.0314 53.9772 24.2261 53.9772 24.2261C53.9772 24.2261 53.9205 24.7903 54.4861 25.5237C55.221 26.4264 56.8612 27.5548 59.0664 28.2879C60.1409 28.6267 60.9893 28.4007 61.9508 28.1752C66.9837 26.9341 72.2992 26.7083 76.7666 29.4164C76.9929 29.5291 77.7847 29.1906 78.1239 28.6829C78.5759 27.9498 77.7277 26.4829 77.7277 26.4829V26.4829Z" fill="#010101"/>
<path d="M52.0005 47.9768C52.4528 48.259 53.0183 48.4283 53.6402 48.936C53.6402 48.936 53.1313 48.936 52.9053 48.7105C52.6224 48.5413 52.0568 48.0336 52.0005 47.9768V47.9768Z" fill="#0A1825"/>
<path d="M68.3426 3.23901C68.1729 2.73132 66.9286 1.82837 64.0448 1.82837C60.9345 1.82837 60.0297 2.78754 59.9733 3.29524C59.9733 3.46447 59.7471 5.27009 59.6904 6.00325C59.6904 6.00325 59.6904 6.90592 59.7468 8.25978C59.8034 9.16245 60.0297 9.67015 60.1427 10.8551C60.2557 12.0959 60.5952 12.8859 61.2171 13.9015C61.5 14.0705 61.726 14.24 62.0089 14.2965C63.14 14.522 65.1192 14.5785 66.1937 14.2965C66.8156 14.1273 67.6074 13.0554 67.777 12.0962C68.003 10.9116 68.2293 10.0651 68.2859 9.33196C68.3989 8.5988 68.4556 6.96242 68.5119 6.51095C68.6818 5.27009 68.3989 3.35174 68.3426 3.23901V3.23901Z" fill="#F0EFEF"/>
<path d="M62.4019 72.9688C62.4019 72.9688 65.3992 74.2664 72.8073 73.138C72.8073 73.138 70.7151 83.6315 71.6765 88.878C71.6765 88.878 72.6377 90.2322 79.7631 92.8272C79.7631 92.8272 82.9298 93.6171 82.8168 95.197C82.8168 95.197 82.9298 95.5355 79.0846 95.4225C75.2394 95.3095 71.6199 94.6325 69.0751 94.6325C66.5303 94.6325 63.8159 94.7453 63.3637 94.0121C62.8548 93.3352 63.4766 91.5861 64.2118 90.5704C65.0039 89.4988 64.7774 88.7085 64.721 86.7908C64.5508 81.7697 60.7053 76.5794 62.4019 72.9688V72.9688Z" fill="#010101"/>
<path d="M61.783 73.9302C61.3871 74.4944 61.8394 76.6379 62.4049 78.7255C62.9705 80.8128 64.2148 82.0542 64.4974 85.4953C64.7801 88.8803 64.8367 89.3318 63.8753 91.3061C62.9138 93.2803 62.6312 95.086 65.9675 95.1425C69.3038 95.199 71.1137 95.086 74.5066 95.5939C77.8999 96.1016 79.0873 96.2709 80.9535 95.9889C82.8198 95.7069 83.2154 95.086 82.4239 94.522C81.6321 93.9578 78.3521 93.3374 76.9384 92.2087C75.5811 91.1933 71.7359 89.5007 71.6795 89.0495C71.5099 87.5261 71.4532 81.9974 71.7359 80.1921C72.0188 78.3865 72.4144 75.7914 72.5277 75.1145C72.6409 74.4376 73.2062 73.7604 72.2448 73.9861C71.2836 74.2116 67.6644 74.7195 64.95 74.5503C62.2356 74.3814 61.9529 73.7607 61.783 73.9302V73.9302Z" fill="#2E2E2E"/>
<path opacity="0.3" d="M63.7045 91.3607C64.6657 91.8119 66.0797 92.1506 67.1541 92.1506C67.1541 92.1506 66.7579 94.0124 67.3801 95.1406C68.002 96.269 62.8561 95.592 62.8561 95.592L62.6301 91.5864L63.7045 91.3607ZM78.6903 96.2125C79.5951 95.9302 80.2172 94.9148 79.4821 93.9559C78.6903 92.9968 78.0117 92.8275 79.0295 92.7713C80.0476 92.7148 83.7798 94.9713 83.7798 94.9713L81.8569 96.7202L78.6903 96.2125ZM61.612 76.128C62.9127 76.5795 64.892 76.6922 66.5886 76.6357C68.2849 76.5795 70.8297 76.3535 72.4699 75.7895C74.1096 75.2253 73.4311 76.41 73.4311 76.41L72.5263 77.2564C72.5263 77.2564 70.3774 78.1026 66.8715 78.0464C62.7434 77.9899 61.499 77.5387 61.499 77.5387L61.612 76.128ZM61.725 78.949C63.026 79.4005 65.005 79.5132 66.7016 79.4567C68.3979 79.4005 70.66 79.4005 72.3 78.7798C72.9786 78.5543 72.5829 79.5132 72.5829 79.5132L72.3 80.0209C72.3 80.0209 70.0945 80.8109 66.6449 80.7541C62.5168 80.6979 61.7817 80.3591 61.7817 80.3591L61.725 78.949Z" fill="#010101"/>
<path d="M57.9937 39.4006C57.9937 39.7956 62.4047 41.9956 64.8362 42.4471C67.2679 42.8983 72.3575 42.4471 73.149 42.2779L73.0358 43.0678C73.0358 43.0678 66.985 43.9705 62.348 42.7293C57.7107 41.4882 58.2199 41.206 58.2199 41.206L57.9937 39.4006Z" fill="#010101"/>
<path d="M48.5485 87.5252C49.2271 87.864 51.6589 88.4844 53.2422 88.1459C53.4682 88.0894 53.2422 84.253 53.8644 82.5042C54.7692 80.0781 56.2395 78.1036 56.9178 73.8162C54.5426 73.5905 51.8285 72.9698 50.4145 72.5183C48.6052 78.0473 49.2274 82.7861 48.5485 87.5252V87.5252ZM52.3377 91.0797C52.7336 91.1924 53.0162 91.6436 53.1295 91.3619C53.3555 90.8539 52.7336 89.895 52.6769 89.2181V89.1616C52.168 88.7104 48.7185 88.6539 48.9447 88.8794C48.5488 89.6128 47.9269 89.5001 47.7009 90.9669C47.5879 91.7001 48.4927 91.0797 49.3406 91.0232C47.8139 92.0386 46.061 93.3365 45.7781 94.4646C45.4388 96.0442 46.0043 96.4957 47.7009 97.3421C49.1713 97.6806 50.9242 97.7371 52.2813 97.6806C53.8083 97.3984 54.0912 96.6652 53.6386 95.6495C52.9596 94.1261 52.5073 92.1516 52.3377 91.0797V91.0797Z" fill="#F0EFEF"/>
<path d="M52.9602 17.7937C54.8264 18.8656 57.4278 18.5836 58.389 18.5271C58.6153 18.5271 60.8774 18.1322 60.9904 18.1884C61.2164 18.2449 61.2164 18.4141 61.2164 18.4141C61.2164 18.4141 60.3682 18.8653 58.4456 18.9781C56.636 19.0908 54.4872 18.9781 53.2997 18.4141C51.8857 17.7937 52.9602 17.7937 52.9602 17.7937ZM72.1873 18.8656C72.5266 19.0911 74.7321 19.9375 75.6935 20.9529C76.5417 21.8559 76.0894 21.7993 75.9195 21.5736C75.6935 21.2914 73.9403 20.1067 73.2618 19.8248C72.5832 19.5428 71.7348 19.0348 71.7348 18.9221C71.7348 18.8094 72.1873 18.8656 72.1873 18.8656V18.8656Z" fill="#010101"/>
<path d="M52.6779 42.2795C54.3178 42.1667 56.0144 42.5617 57.0889 43.6898C57.6544 44.254 58.5592 44.8745 58.4462 45.4387C58.4462 45.6079 58.1067 46.0594 57.8243 46.3978C57.6547 46.6233 57.1458 47.131 56.9759 47.3005C56.7499 47.4697 55.9581 48.0904 55.7885 48.2032C55.6188 48.3162 55.3926 48.5984 55.2229 48.6546C54.6577 48.9369 54.0355 48.7112 53.47 48.4292C52.9047 48.147 53.5832 48.0904 52.9611 47.6393C51.4344 46.5673 50.5859 45.8336 51.2081 43.7463C51.2644 43.3514 51.8863 42.8999 52.6779 42.2795V42.2795Z" fill="#F0EFEF"/>
<path opacity="0.4" d="M38.2563 29.3598C33.1667 31.3909 20.2166 37.8226 16.541 39.7971C19.5947 41.7152 21.0084 46.3413 21.4609 51.0238C21.5173 51.4753 21.5739 51.8703 21.6306 52.3215C21.6869 52.7165 21.7436 52.9984 21.7999 53.1679C21.7999 53.2244 21.7999 53.3372 21.8566 53.3934C25.1931 44.3105 37.1249 34.7196 37.5775 33.9861C37.8035 33.6477 37.2946 32.1808 38.0864 30.7707C39.1044 28.9648 41.084 28.1749 38.2563 29.3598V29.3598ZM50.358 71.9545C52.9591 66.7642 53.0158 61.7994 52.9591 55.9884C52.9591 53.5623 54.7121 50.1209 53.8076 51.0801C50.4143 54.8597 41.8755 61.9686 35.7115 62.3633C44.3636 62.0813 47.7566 66.4255 50.358 71.9545Z" fill="#010101"/>
<path d="M11.5654 44.5918C14.7887 42.2787 31.4711 33.4216 35.4862 32.1801C39.501 30.8825 38.257 29.3591 38.257 29.3591C38.257 29.3591 21.9705 36.3547 12.244 42.3915" fill="#010101"/>
<path opacity="0.4" d="M59.0661 28.2882C57.7654 27.7805 56.7476 29.3039 57.0868 30.7708C57.4264 32.2377 60.4801 33.8735 60.3102 39.2333C60.1972 43.6339 59.2357 45.439 59.2357 45.439L57.0868 42.7312C57.0868 42.7312 56.7476 36.638 56.0124 35.7353C55.2775 34.8327 52.9587 33.1966 52.0539 32.3504C51.1491 31.5039 53.0717 30.3758 52.9587 28.7959C52.8457 27.2728 53.9202 24.2264 53.9202 24.2264L59.0661 28.2882ZM66.9267 52.3216C66.8137 56.5527 67.7751 62.8151 68.1707 65.8054C68.5667 68.7953 69.0755 69.0211 68.1707 70.3752C67.2659 71.6729 66.0785 73.8167 66.0785 73.8167L62.1764 73.4779C62.1764 73.4779 65.2867 69.5288 65.4561 68.7953C65.6257 68.0622 63.8727 62.4769 63.8727 62.4769L66.9267 52.3216ZM59.4056 12.8301C60.1974 14.5787 61.1586 15.3686 62.6853 15.8766C63.5901 16.2151 67.1527 16.6665 68.5666 15.0867C69.1885 14.3532 68.7926 12.3787 68.7926 12.3787L65.5693 14.9737L61.215 14.184L60.7061 12.8864L59.4056 12.8301Z" fill="#010101"/>
<path d="M59.7452 16.7234C61.2156 17.6826 64.8914 18.5852 65.9092 18.7545C66.927 18.9799 68.567 17.6826 69.3588 17.3441C70.2072 16.9491 71.6776 16.7234 73.3739 18.2468C73.5435 18.416 72.978 19.1494 72.978 19.1494C72.9214 19.0929 72.5821 19.0929 72.1296 18.8672C71.6773 18.6417 71.2814 18.4722 70.6029 18.5287C67.7752 18.8672 67.3229 19.8264 64.8348 19.2619C62.3466 18.6974 61.7245 18.2465 59.293 18.3592" fill="#2E2E2E"/>
<path d="M59.235 16.8918C61.1012 17.6818 64.7205 18.528 65.7383 18.7537C66.7561 18.9794 68.396 17.9637 69.1878 17.456C70.6018 16.5534 72.4111 17.2868 73.2596 18.246C73.8248 18.8664 74.0514 19.2614 74.0514 19.4306C74.0514 19.6561 73.3729 19.4306 73.3729 19.4306C72.977 19.2614 72.5244 19.2052 72.1854 18.9791C71.7329 18.7537 71.2803 18.4152 70.6021 18.4714C67.7744 18.8102 67.2089 19.7691 64.7774 19.2049C62.3459 18.6407 61.7237 18.133 59.1226 18.3019" fill="#2E2E2E"/>
<path d="M50.4719 69.5853C50.3589 69.4726 50.5849 69.3599 50.4719 69.3599C49.737 69.3599 48.719 68.7957 48.1532 68.0057C45.7217 64.5081 42.1588 62.195 35.7122 62.3643C26.042 62.5897 22.1965 58.6409 21.4616 51.081C21.0657 46.9627 19.9346 42.957 17.6161 40.7002L16.2588 41.5466C18.8599 43.8032 19.7084 47.4704 20.2739 52.4914C21.1787 60.0512 27.2861 63.5492 34.4115 63.6619C41.8195 63.7746 44.4773 65.298 47.2481 69.0217C48.1529 70.2063 49.171 70.6013 49.9625 70.7705L50.4719 69.5853Z" fill="#010101"/>
<path opacity="0.4" d="M76.711 33.3086C76.8806 34.1548 77.3329 35.7909 78.2377 36.5805C78.6339 36.9755 78.6902 37.0882 78.3509 37.0882C78.0114 37.0882 75.5233 36.9755 75.5233 36.9755L74.8447 35.7909L76.711 33.3086Z" fill="#010101"/>
</svg>
