<svg width="15" height="27" viewBox="0 0 15 27" fill="none" xmlns="http://www.w3.org/2000/svg">
<path opacity="0.3" d="M8.20724 0.523802C8.19541 0.571161 8.19516 0.622117 8.20512 0.675773C8.20512 0.675773 8.36621 1.74516 8.18327 2.22106L0.408338 22.4391C-0.146596 23.9235 0.597065 25.582 2.07995 26.1524C3.56284 26.7228 5.22572 25.9902 5.80886 24.5161L5.8095 24.5164L13.5851 4.29859C13.7371 3.90308 14.6042 3.1368 14.6042 3.1368C14.6477 3.10364 14.6815 3.0656 14.7045 3.02255L14.7083 3.01471C14.7125 3.00623 14.7173 2.99813 14.7207 2.98933C14.9212 2.468 13.628 1.48536 11.8322 0.794779C10.0364 0.104196 8.41794 -0.0331244 8.21745 0.488267C8.21405 0.497071 8.21212 0.50626 8.20962 0.515384L8.20724 0.523738V0.523802Z" fill="white"/>
<path d="M7.9826 0.352011C7.97072 0.399369 7.96975 0.450326 7.98048 0.503981C7.98048 0.503981 8.14164 1.57337 7.95863 2.04926L0.183703 22.2672C-0.371167 23.7516 0.37243 25.4101 1.85532 25.9805C3.33821 26.551 5.00108 25.8183 5.58423 24.3443V24.3446L13.3605 4.12674C13.5125 3.73123 14.3796 2.96495 14.3796 2.96495C14.4231 2.93179 14.4569 2.89381 14.4799 2.85069L14.4836 2.84285C14.4878 2.8345 14.4926 2.82628 14.496 2.81747C14.6965 2.29615 13.4033 1.31357 11.6076 0.622924C9.81191 -0.0677246 8.19337 -0.20498 7.99288 0.316411C7.98948 0.325215 7.98755 0.334404 7.98504 0.343529L7.98267 0.352011H7.9826Z" fill="url(#paint0_linear_126_307)"/>
<path d="M10.4217 9.49835L4.81806 24.0796C4.4045 25.1246 3.20094 25.6682 2.13335 25.2576C1.06576 24.847 0.487825 23.6183 0.881086 22.5654L4.464 13.2491C4.464 13.2491 4.91149 12.5273 5.7901 12.0137C6.6687 11.5002 7.39334 11.6086 8.36891 11.175C9.34448 10.7414 10.4218 9.49829 10.4218 9.49829L10.4217 9.49835Z" fill="black"/>
<path d="M11.021 2.15107C12.1356 2.57976 13.1305 2.68964 13.2433 2.39648C13.3561 2.10332 12.5439 1.51814 11.4293 1.08945C10.3147 0.660757 9.31973 0.550885 9.20697 0.844044C9.09422 1.1372 9.90638 1.72238 11.021 2.15107Z" fill="#333333"/>
<path opacity="0.3" d="M8.84399 0.205566C8.84399 0.205566 9.00353 1.28661 8.82203 1.75883L1.00692 22.0814C0.44918 23.5734 1.19662 25.2405 2.68717 25.8139C2.94586 25.9134 3.20984 25.9725 3.47285 25.9962C2.46808 25.2403 2.03701 23.8885 2.49799 22.6549L2.49734 22.6546L10.158 2.73557C10.158 2.73557 9.11527 1.75638 8.84399 0.205566Z" fill="white"/>
<path opacity="0.5" d="M6.32753 13.5418C6.4526 13.5418 6.55398 13.4404 6.55398 13.3153C6.55398 13.1903 6.4526 13.0889 6.32753 13.0889C6.20246 13.0889 6.10107 13.1903 6.10107 13.3153C6.10107 13.4404 6.20246 13.5418 6.32753 13.5418Z" fill="white"/>
<path opacity="0.5" d="M7.81206 15.2984C8.00059 15.2984 8.15342 15.1456 8.15342 14.9571C8.15342 14.7686 8.00059 14.6157 7.81206 14.6157C7.62354 14.6157 7.4707 14.7686 7.4707 14.9571C7.4707 15.1456 7.62354 15.2984 7.81206 15.2984Z" fill="white"/>
<path opacity="0.5" d="M5.54593 17.5504C5.89962 17.5504 6.18634 17.2636 6.18634 16.9099C6.18634 16.5563 5.89962 16.2695 5.54593 16.2695C5.19224 16.2695 4.90552 16.5563 4.90552 16.9099C4.90552 17.2636 5.19224 17.5504 5.54593 17.5504Z" fill="white"/>
<path opacity="0.5" d="M4.5089 18.4358C4.69747 18.4358 4.85033 18.2829 4.85033 18.0944C4.85033 17.9058 4.69747 17.7529 4.5089 17.7529C4.32034 17.7529 4.16748 17.9058 4.16748 18.0944C4.16748 18.2829 4.32034 18.4358 4.5089 18.4358Z" fill="white"/>
<path opacity="0.5" d="M5.86879 20.8535C5.99385 20.8535 6.09524 20.7522 6.09524 20.6271C6.09524 20.502 5.99385 20.4006 5.86879 20.4006C5.74372 20.4006 5.64233 20.502 5.64233 20.6271C5.64233 20.7522 5.74372 20.8535 5.86879 20.8535Z" fill="white"/>
<defs>
<linearGradient id="paint0_linear_126_307" x1="3.48022" y1="12.0515" x2="9.98348" y2="14.5523" gradientUnits="userSpaceOnUse">
<stop stop-color="#919191"/>
<stop offset="1" stop-color="white"/>
</linearGradient>
</defs>
</svg>
